<?xml version="1.0" encoding="UTF-8" standalone="no"?>
<!-- Created with Inkscape (http://www.inkscape.org/) -->

<svg
   xmlns:dc="http://purl.org/dc/elements/1.1/"
   xmlns:cc="http://creativecommons.org/ns#"
   xmlns:rdf="http://www.w3.org/1999/02/22-rdf-syntax-ns#"
   xmlns:svg="http://www.w3.org/2000/svg"
   xmlns="http://www.w3.org/2000/svg"
   xmlns:sodipodi="http://sodipodi.sourceforge.net/DTD/sodipodi-0.dtd"
   xmlns:inkscape="http://www.inkscape.org/namespaces/inkscape"
   sodipodi:docname="diamond-plate-metal-background.svg"
   inkscape:version="0.48.4 r9939"
   version="1.1"
   id="svg2"
   height="40"
   width="40">
  <defs
     id="defs4">
    <clipPath
       clipPathUnits="userSpaceOnUse"
       id="clipPath8718">
      <rect
         style="fill:#000000;fill-opacity:1;stroke:none"
         id="rect8720"
         width="400"
         height="400"
         x="-751.93347"
         y="503.32468" />
    </clipPath>
  </defs>
  <sodipodi:namedview
     id="base"
     pagecolor="#ffffff"
     bordercolor="#666666"
     borderopacity="1.0"
     inkscape:pageopacity="0.0"
     inkscape:pageshadow="2"
     inkscape:zoom="16.658781"
     inkscape:cx="25.496384"
     inkscape:cy="15.590994"
     inkscape:document-units="px"
     inkscape:current-layer="layer1"
     showgrid="false"
     inkscape:window-width="1678"
     inkscape:window-height="1030"
     inkscape:window-x="0"
     inkscape:window-y="18"
     inkscape:window-maximized="1"
     fit-margin-top="0"
     fit-margin-left="0"
     fit-margin-right="0"
     fit-margin-bottom="0" />
  <metadata
     id="metadata7">
    <rdf:RDF>
      <cc:Work
         rdf:about="">
        <dc:format>image/svg+xml</dc:format>
        <dc:type
           rdf:resource="http://purl.org/dc/dcmitype/StillImage" />
        <dc:title />
      </cc:Work>
    </rdf:RDF>
  </metadata>
  <g
     inkscape:label="Layer 1"
     inkscape:groupmode="layer"
     id="layer1"
     transform="translate(1.2167969e-5,-1012.3622)">
    <g
       id="g3058"
       transform="matrix(0.1,0,0,0.1,75.193335,962.0297)">
      <path
         style="fill:#000000;fill-opacity:1"
         d="m -914.76571,1053.9295 c 0.5225,-0.4548 3.875,-2.8732 7.45,-5.3743 13.1901,-9.2279 27.411,-26.7064 38.8902,-47.799 4.6769,-8.59366 4.92,-10.18976 1.9973,-13.11256 -3.0039,-3.00377 -6.7593,-2.1037 -17.4484,4.1822 -14.3895,8.46196 -23.0641,14.61206 -30.4867,21.61416 l -6.9524,6.5585 0,-47.61503 0,-47.61494 8.7083,-5.7352 c 15.6163,-10.2847 25.6736,-21.0818 37.5174,-40.27706 11.8464,-19.19961 12.6532,-22.06756 7.2113,-25.63323 -2.444,-1.60139 -2.79,-1.52717 -10.044,2.15479 -12.2336,6.20947 -27.5954,16.72658 -35.7606,24.48271 l -7.6324,7.24999 0.013,-47.87713 0.013,-47.87713 7.6926,-5 c 17.2735,-11.22745 27.5834,-22.49104 40.619,-44.37644 9.0824,-15.24829 9.7501,-17.33701 6.6106,-20.67892 -1.2632,-1.34455 -3.2151,-2.44464 -4.3377,-2.44464 -4.7238,0 -31.4638,16.9724 -42.8603,27.20422 l -7.75,6.95798 0,-47.39944 0,-47.39944 9.8343,-6.6526 c 16.5932,-11.22485 30.4457,-27.54018 43.0558,-50.71072 4.677,-8.59366 4.9201,-10.18981 1.9973,-13.11257 -3.0038,-3.00383 -6.7592,-2.10369 -17.4483,4.18222 -14.3895,8.46195 -23.0641,14.61195 -30.4867,21.61409 l -6.9524,6.55852 0,-47.61503 0,-47.61502 8.4751,-5.5816 c 15.7587,-10.37853 26.4057,-21.91426 38.7016,-41.93217 10.8077,-17.59505 11.5964,-20.63534 6.2603,-24.13167 -2.444,-1.60139 -2.79,-1.52717 -10.044,2.15479 -12.2337,6.20947 -27.5955,16.72658 -35.7607,24.48271 l -7.6323,7.24999 0.013,-47.87713 0.013,-47.87713 7.6925,-5 c 17.2735,-11.22745 27.5834,-22.49104 40.6191,-44.37644 9.0824,-15.24829 9.7501,-17.33701 6.6106,-20.67892 -1.2632,-1.34455 -3.2151,-2.44464 -4.3377,-2.44464 -4.7238,0 -31.4638,16.9724 -42.8603,27.20421 l -7.75,6.95799 0,-47.46609 0,-47.46609 2.4648,-1.61501 c 2.0489,-1.34248 5.6477,-1.61501 21.3268,-1.61501 l 18.862,0 -0.4346,2.96114 c -0.4987,3.39798 3.2232,10.63988 13.6104,26.48247 7.9872,12.18209 18.3881,23.23154 29.1864,31.00637 10.531,7.58234 29.7613,18.55002 32.5249,18.55002 2.8004,0 5.7093,-3.27263 5.7093,-6.42323 0,-1.36923 -3.012,-7.67638 -6.6933,-14.0159 -15.0559,-25.92751 -26.3604,-37.66886 -50.1643,-52.10314 l -10.6496,-6.45773 27.1286,0 c 14.9207,0 27.1286,0.19571 27.1286,0.4349 0,0.2392 -0.4396,1.59098 -0.9768,3.00396 -1.8458,4.85491 2.083,9.41058 7.4768,8.66972 1.1,-0.1511 6.5776,-2.93733 12.1724,-6.19165 l 10.1724,-5.91693 18.5967,0 18.5966,0 -0.6218,2.47747 c -0.7247,2.88734 4.1908,12.45518 14.1398,27.52253 11.3026,17.11742 22.4142,27.39294 42.9439,39.71252 12.9554,7.77437 15.9613,9.28748 18.4503,9.28748 2.7474,0 6.0497,-3.45011 6.0497,-6.32041 0,-2.73137 -13.3389,-25.35545 -20.45,-34.68524 -9.5666,-12.55149 -23.5588,-24.1769 -40.8,-33.89884 -3.1625,-1.78326 -5.75,-3.43427 -5.75,-3.6689 0,-0.23464 12.1658,-0.42661 27.0351,-0.42661 26.4191,0 27.0116,0.0441 26,1.93426 -2.9922,5.59108 0.5149,10.68022 7.0184,10.18422 0.8544,-0.0652 6.1202,-2.81848 11.7018,-6.11848 l 10.1483,-6 18.4492,0 18.4492,0 -0.095,3.33573 c -0.07,2.45415 1.7839,6.48443 7.013,15.24999 15.9048,26.66089 27.4874,38.0873 54.5202,53.78505 11.941,6.93407 15.3544,7.83915 18.1043,4.80049 2.547,-2.81434 2.0149,-5.84008 -2.4771,-14.08595 -15.6369,-28.70445 -31.1321,-44.53127 -59.5172,-60.79104 l -3.8506,-2.20574 27.2252,-0.0443 27.2253,-0.0443 -0.9753,2.5651 c -1.3768,3.62129 -1.2297,4.89902 0.861,7.48095 2.922,3.60853 6.7782,2.76279 18.1262,-3.97545 l 10.2236,-6.0706 18.7338,0 18.7338,0 -0.4346,2.96114 c -0.4987,3.39798 3.2232,10.63988 13.6104,26.48247 7.9872,12.18209 18.3881,23.23154 29.1864,31.00637 10.531,7.58234 29.7613,18.55002 32.5249,18.55002 2.8004,0 5.7093,-3.27263 5.7093,-6.42323 0,-1.36923 -3.012,-7.67638 -6.6933,-14.0159 -15.0559,-25.92751 -26.3604,-37.66886 -50.1643,-52.10314 l -10.6496,-6.45773 27.1286,0 c 14.9207,0 27.1286,0.19571 27.1286,0.4349 0,0.2392 -0.4396,1.59098 -0.9768,3.00396 -1.8458,4.85491 2.083,9.41058 7.4768,8.66972 1.1,-0.1511 6.5776,-2.93733 12.1724,-6.19165 l 10.1724,-5.91693 18.5967,0 18.5966,0 -0.6218,2.47747 c -0.7247,2.88734 4.1908,12.45518 14.1398,27.52253 11.3026,17.11742 22.4142,27.39294 42.9439,39.71252 12.9553,7.77437 15.9613,9.28748 18.4503,9.28748 2.7473,0 6.0497,-3.45011 6.0497,-6.32041 0,-2.73137 -13.3389,-25.35545 -20.45,-34.68524 -9.5666,-12.55149 -23.5588,-24.1769 -40.8,-33.89884 -3.1625,-1.78326 -5.75,-3.43427 -5.75,-3.6689 0,-0.23464 12.1658,-0.42661 27.0351,-0.42661 26.4191,0 27.0116,0.0441 26,1.93426 -2.9922,5.59108 0.5149,10.68022 7.0184,10.18422 0.8544,-0.0652 6.1202,-2.81848 11.70178,-6.11848 l 10.14827,-6 18.44922,0 18.44923,0 -0.0946,3.33573 c -0.0696,2.45415 1.78384,6.48443 7.01301,15.24999 15.90479,26.66089 27.48738,38.0873 54.52018,53.78505 11.94102,6.93407 15.35439,7.83915 18.10433,4.80049 2.54694,-2.81434 2.01484,-5.84008 -2.47716,-14.08595 -15.63689,-28.70445 -31.13208,-44.53127 -59.5172,-60.79104 l -3.85061,-2.20574 27.22525,-0.0443 27.22525,-0.0443 -0.97525,2.5651 c -1.37681,3.62129 -1.22976,4.89902 0.86096,7.48095 2.72987,3.37125 6.78022,2.73789 15.51469,-2.42608 l 7.6491,-4.52227 0,47.94611 0,47.94612 -4.78887,5.94293 c -6.37402,7.91008 -19.27685,29.69725 -19.91453,33.62682 -0.41386,2.55033 -9.3e-4,3.52774 2.23267,5.28469 1.50725,1.18559 3.46726,2.15228 4.35559,2.14819 0.88833,-0.004 5.15442,-2.02909 9.4802,-4.5 4.32579,-2.47091 8.03829,-4.49256 8.25,-4.49256 0.21172,0 0.38494,21.38466 0.38494,47.52147 l 0,47.52146 -4.85554,6.22854 c -2.67055,3.42569 -7.59639,10.81666 -10.94632,16.42438 -10.37566,17.36867 -10.68664,18.32931 -7.15918,22.11559 2.99529,3.21507 6.55023,2.68677 14.96104,-2.22336 l 7.5,-4.37841 0.25976,47.49987 0.25976,47.49986 -5.35677,7.1453 c -7.03298,9.38116 -18.51766,28.66987 -19.24974,32.33026 -0.79193,3.95963 2.24001,7.6577 6.18633,7.54549 1.60981,-0.0458 6.06387,-1.91634 9.89792,-4.15683 3.83405,-2.24049 7.31564,-4.07362 7.73687,-4.07362 0.42123,0 0.76587,21.37273 0.76587,47.49496 l 0,47.49497 -4.78887,5.94293 c -6.37402,7.91008 -19.27685,29.69725 -19.91453,33.62682 -0.41386,2.55033 -9.3e-4,3.52774 2.23267,5.28469 1.50725,1.18559 3.46726,2.15228 4.35559,2.14819 0.88833,-0.004 5.15442,-2.02909 9.4802,-4.5 4.32579,-2.47091 8.03829,-4.49256 8.25,-4.49256 0.21172,0 0.38494,21.38466 0.38494,47.52147 l 0,47.52146 -4.85554,6.22854 c -2.67055,3.42573 -7.59639,10.81663 -10.94632,16.42443 -10.37566,17.3687 -10.68664,18.3293 -7.15918,22.1156 2.99529,3.2151 6.55023,2.6868 14.96104,-2.2234 l 7.5,-4.3784 0.25975,47.47314 0.25974,47.47323 -5.25974,7.0519 c -2.89286,3.8786 -7.99053,11.606 -11.32816,17.172 l -6.0684,10.1201 -27.4316,0.2768 c -24.13256,0.2435 -27.89176,0.071 -31.25792,-1.4363 -3.61086,-1.6167 -4.00519,-1.6168 -7.00232,0 -2.71815,1.4638 -5.73128,1.6708 -20.90242,1.4362 l -17.72645,-0.2737 8.10206,-5.9844 c 13.52303,-9.9883 24.09751,-22.6817 35.93854,-43.1399 6.63322,-11.46066 7.19282,-12.98316 5.76736,-15.69126 -2.90078,-5.51097 -6.38937,-4.93677 -20.33241,3.3467 -15.556,9.24176 -20.54002,12.86886 -29.37949,21.38046 -8.68035,8.3583 -15.62179,17.4328 -23.58979,30.8384 l -5.7952,9.75 -27.3428,0 c -23.8124,0 -27.8094,-0.2225 -30.9559,-1.7229 -3.4192,-1.6306 -3.7739,-1.6306 -6.6149,0 -2.5456,1.4609 -5.8261,1.7229 -21.5778,1.7229 l -18.5758,0 6.9074,-4.8509 c 14.5637,-10.2277 25.0881,-22.431 37.1077,-43.0273 7.574,-12.97866 8.6009,-16.63336 5.4698,-19.46686 -2.9624,-2.68097 -6.2256,-1.9585 -15.7132,3.479 -29.2663,16.77316 -41.7601,29.06236 -58.0476,57.09686 l -3.9104,6.7309 -26.8658,0.019 c -22.8506,0.016 -27.5863,-0.2368 -31.6868,-1.6931 -4.5622,-1.6204 -4.9238,-1.6192 -6.7379,0.023 -1.7003,1.5388 -4.0366,1.704 -20.6732,1.4622 l -18.7561,-0.2726 7.0061,-4.7855 c 13.7573,-9.3968 28.3585,-27.133 40.1038,-48.7146 4.6769,-8.59366 4.9201,-10.18976 1.9973,-13.11256 -3.0038,-3.00377 -6.7592,-2.1037 -17.4484,4.1823 -27.8429,16.37346 -38.8527,27.03726 -54.0074,52.31026 l -6.0684,10.1201 -27.4316,0.2768 c -24.1326,0.2435 -27.8918,0.071 -31.258,-1.4363 -3.6108,-1.6166 -4.0052,-1.6168 -7.0023,0 -2.7181,1.4638 -5.7313,1.6709 -20.9024,1.4363 l -17.7265,-0.2737 8.1021,-5.9844 c 4.4561,-3.2913 11.0252,-9.1413 14.5978,-13 7.1324,-7.7032 18.969,-24.9946 24.7493,-36.15466 3.2571,-6.2887 3.5493,-7.4202 2.4533,-9.5 -3.0076,-5.70677 -6.3609,-5.18637 -20.4269,3.1702 -15.7937,9.38296 -20.5795,12.89346 -29.8295,21.87986 -9.0638,8.8056 -15.1044,16.7167 -23.1654,30.339 l -5.7695,9.75 -27.3429,0 c -23.8124,0 -27.8094,-0.2225 -30.9559,-1.7229 -3.4192,-1.6306 -3.7739,-1.6306 -6.6149,0 -2.5456,1.4609 -5.8261,1.7229 -21.5778,1.7229 l -18.5758,0 6.9074,-4.8509 c 14.5637,-10.2277 25.0881,-22.431 37.1077,-43.0273 7.574,-12.97866 8.6009,-16.63336 5.4698,-19.46686 -2.9624,-2.68097 -6.2256,-1.9585 -15.7132,3.479 -29.2663,16.77316 -41.7601,29.06236 -58.0476,57.09686 l -3.9104,6.7309 -26.8658,0.019 c -22.8506,0.016 -27.5863,-0.2368 -31.6867,-1.6931 -4.5509,-1.6164 -4.927,-1.6164 -6.713,0 -1.6453,1.489 -4.3525,1.7123 -20.7633,1.7123 -10.3792,0 -18.4437,-0.3721 -17.9212,-0.8268 z m 113.5636,-54.23406 c 1.0902,-0.5835 2.4081,-2.1813 2.9288,-3.5507 1.1001,-2.8934 -0.019,-5.3973 -9.3361,-20.88847 -7.7682,-12.9162 -13.543,-20.4805 -21.6562,-28.36724 -10.3159,-10.0281 -38.5581,-28.1328 -43.8854,-28.1328 -3.0168,0 -6.1647,3.4634 -6.1647,6.7826 0,2.9299 11.7186,23.15474 19.2126,33.15864 10.8099,14.4304 26.3955,26.76377 49.1782,38.91647 6.5683,3.50366 6.9234,3.57966 9.7228,2.0815 z m 134.572,-1.1136 c 1.2729,-1.1958 2.3144,-3.1342 2.3144,-4.3075 0,-2.9086 -13.1208,-25.17327 -20.7019,-35.12917 -3.397,-4.461 -9.0163,-10.69514 -12.4872,-13.85364 -10.9267,-9.9431 -37.5061,-26.5282 -42.5219,-26.5331 -2.635,0 -6.289,3.6207 -6.289,6.2361 0,2.2919 1.6175,5.4756 9.2776,18.2618 14.2237,23.74214 27.603,36.34984 55.2224,52.03761 11.3263,6.43326 11.7418,6.52316 15.1856,3.288 z m 134.1358,-0.6766 c 2.8038,-3.4992 0.3042,-9.1771 -13.4925,-30.64897 -10.8586,-16.8992 -28.0556,-31.89584 -51.425,-44.84504 -7.4502,-4.1282 -9.7065,-4.4451 -12.9499,-1.8187 -3.4798,2.8177 -2.7407,6.7657 3.138,16.7626 17.8596,30.37054 31.6076,43.52464 62.7651,60.05401 6.6822,3.54496 9.4299,3.65886 11.9643,0.4961 z m 131.2922,1.7902 c 1.0902,-0.5835 2.4081,-2.1813 2.9288,-3.5507 1.1001,-2.8934 -0.019,-5.3973 -9.3361,-20.88847 -7.7682,-12.9162 -13.543,-20.4805 -21.6562,-28.36724 -10.3159,-10.0281 -38.5581,-28.1328 -43.8854,-28.1328 -3.0168,0 -6.1647,3.4634 -6.1647,6.7826 0,2.9299 11.7186,23.15474 19.2126,33.15864 10.8099,14.4304 26.3955,26.76377 49.1782,38.91647 6.5683,3.50366 6.9234,3.57966 9.7228,2.0815 z m 134.572,-1.1136 c 1.2729,-1.1958 2.3144,-3.1342 2.3144,-4.3075 0,-2.9086 -13.1208,-25.17327 -20.7019,-35.12917 -3.397,-4.461 -9.0163,-10.69514 -12.4872,-13.85364 -10.9267,-9.9431 -37.5061,-26.5282 -42.5219,-26.5331 -2.635,0 -6.289,3.6207 -6.289,6.2361 0,2.2919 1.6175,5.4756 9.2776,18.2618 14.2237,23.74214 27.603,36.34984 55.2224,52.03761 11.3263,6.43326 11.7418,6.52316 15.1856,3.288 z m 134.13576,-0.6766 c 2.80383,-3.4992 0.30426,-9.1771 -13.49247,-30.64897 -10.85858,-16.8992 -28.05558,-31.89584 -51.42498,-44.84504 -7.45023,-4.1282 -9.70653,-4.4451 -12.94995,-1.8187 -3.47974,2.8177 -2.74065,6.7657 3.13807,16.7626 17.85956,30.37054 31.60752,43.52464 62.76503,60.05401 6.68219,3.54496 9.42994,3.65886 11.9643,0.4961 z m -662.27936,-69.26811 c 27.7884,-15.8798 41.2806,-29.2811 57.3297,-56.94381 6.2553,-10.78182 7.1718,-14.12769 4.7699,-17.41259 -2.4584,-3.362 -6.7352,-2.25011 -19.2109,4.99445 -26.778,15.54975 -40.0725,28.96732 -54.8483,55.35575 -6.8657,12.2616 -7.117,13.1759 -4.5273,16.4682 3.0407,3.8657 6.2536,3.3859 16.4869,-2.462 z m 131.2146,1.1353 c 29.5369,-16.1012 45.4659,-32.1603 61.6372,-62.14076 3.9963,-7.4089 4.5104,-8.99719 3.6471,-11.26793 -1.1164,-2.9364 -5.076,-4.91177 -7.7822,-3.88245 -0.9673,0.36791 -6.0337,3.1249 -11.2587,6.12665 -27.2596,15.66059 -38.4386,26.54332 -54.273,52.83479 -7.9303,13.1676 -8.872,16.2338 -6.1703,20.0911 2.2597,3.2261 5.8728,2.7779 14.1999,-1.7614 z m 134.6452,-0.6812 c 28.0766,-16.1737 39.5229,-27.0058 54.7749,-51.83652 10.8077,-17.59505 11.5964,-20.63534 6.2603,-24.13167 -2.444,-1.60139 -2.79,-1.52717 -10.044,2.15479 -14.9472,7.5868 -28.4671,17.25551 -38.9186,27.83245 -5.5142,5.5803 -11.7009,12.69605 -13.7483,15.81285 -7.2166,10.9857 -15.7261,26.3475 -15.7261,28.3897 0,2.9516 3.6259,6.4435 6.6907,6.4435 1.437,0 6.257,-2.0993 10.7111,-4.6651 z m 134.1402,-0.4541 c 27.7884,-15.8798 41.2806,-29.2811 57.3297,-56.94381 6.2553,-10.78182 7.1718,-14.12769 4.7699,-17.41259 -2.4584,-3.362 -6.7352,-2.25011 -19.2109,4.99445 -26.778,15.54975 -40.0725,28.96732 -54.8483,55.35575 -6.8657,12.2616 -7.117,13.1759 -4.5273,16.4682 3.0407,3.8657 6.2536,3.3859 16.4869,-2.462 z m 131.2146,1.1353 c 29.53693,-16.1012 45.46585,-32.1603 61.63719,-62.14076 3.99633,-7.4089 4.51041,-8.99719 3.64708,-11.26793 -1.11642,-2.9364 -5.07595,-4.91177 -7.78218,-3.88245 -0.96727,0.36791 -6.03368,3.1249 -11.25868,6.12665 -27.25962,15.66059 -38.43859,26.54332 -54.27301,52.83479 -7.9303,13.1676 -8.872,16.2338 -6.1703,20.0911 2.2597,3.2261 5.8727,2.7779 14.1999,-1.7614 z m -537.1563,-63.78147 c 0.6052,-0.40408 1.6177,-1.71773 2.2502,-2.91922 1.4674,-2.78783 0.5908,-5.13248 -6.0772,-16.25477 -16.9739,-28.31301 -26.1147,-37.58076 -53.1546,-53.89307 -12.8215,-7.73481 -16.8532,-8.77596 -20.0982,-5.19025 -2.8264,3.12309 -1.4193,7.59217 6.4879,20.606 15.7072,25.85142 26.6157,36.41265 54.1163,52.39327 9.7463,5.66355 13.8885,6.9855 16.4756,5.25804 z m 134.9869,-1.7274 c 2.1921,-3.34553 1.5229,-5.4641 -5.4645,-17.29944 -9.7241,-16.471 -14.0188,-22.27252 -23.5383,-31.79667 -9.4356,-9.44024 -17.7355,-15.51893 -33.1362,-24.26856 -9.8808,-5.61355 -13.3419,-6.24889 -16.5523,-3.03845 -2.8784,2.87837 -2.0983,5.99109 4.1547,16.57769 14.3477,24.29117 25.3766,36.47321 43.9494,48.54491 21.5251,13.99053 27.3935,16.15478 30.5872,11.28052 z m 132.5841,0.83772 c 2.9967,-2.71201 2.1431,-6.33294 -3.9997,-16.96531 -11.6834,-20.22249 -22.6249,-33.61714 -35.2414,-43.14264 -3.0512,-2.30368 -11.1316,-7.57444 -17.9564,-11.71279 -14.8259,-8.98998 -18.7563,-9.66627 -21.8656,-3.76239 -1.4966,2.84167 0.1627,6.83577 8.4076,20.23812 14.3085,23.25881 24.9678,33.93356 47.3506,47.4195 17.6572,10.63868 19.5831,11.29365 23.3049,7.92551 z m 132.429,0.88968 c 0.6052,-0.40408 1.6177,-1.71773 2.2502,-2.91922 1.4674,-2.78783 0.5908,-5.13248 -6.0772,-16.25477 -16.9739,-28.31301 -26.1147,-37.58076 -53.1546,-53.89307 -12.8215,-7.73481 -16.8532,-8.77596 -20.0982,-5.19025 -2.8264,3.12309 -1.4193,7.59217 6.4879,20.606 15.7072,25.85142 26.6157,36.41265 54.1163,52.39327 9.7463,5.66355 13.8885,6.9855 16.4756,5.25804 z m 134.9869,-1.7274 c 2.1921,-3.34553 1.5229,-5.4641 -5.4645,-17.29944 -9.7241,-16.471 -14.0188,-22.27252 -23.5383,-31.79667 -9.4356,-9.44024 -17.7355,-15.51893 -33.1362,-24.26856 -9.8808,-5.61355 -13.3419,-6.24889 -16.5523,-3.03845 -2.8784,2.87837 -2.0983,5.99109 4.1547,16.57769 14.3477,24.29117 25.3766,36.47321 43.9494,48.54491 21.5251,13.99053 27.3935,16.15478 30.5872,11.28052 z m 132.58407,0.83772 c 2.99674,-2.71201 2.14308,-6.33294 -3.9997,-16.96531 -11.68341,-20.22249 -22.62492,-33.61714 -35.24135,-43.14264 -3.05121,-2.30368 -11.13159,-7.57444 -17.95641,-11.71279 -14.82596,-8.98998 -18.75629,-9.66627 -21.86564,-3.76239 -1.4966,2.84167 0.16269,6.83577 8.40764,20.23812 14.30849,23.25881 24.96774,33.93356 47.3506,47.4195 17.65721,10.63868 19.58311,11.29365 23.30486,7.92551 z m -664.17127,-68.44271 c 29.1632,-15.82419 45.9049,-32.58788 61.9591,-62.04047 4.562,-8.36942 4.9239,-10.97886 1.9368,-13.966 -3.0219,-3.02189 -6.2902,-2.04689 -19.3192,5.76346 -26.4888,15.8788 -38.4601,27.99827 -54.1056,54.77478 -6.4276,11.00064 -7.177,14.76613 -3.527,17.72176 3.1973,2.58895 4.5673,2.35247 13.0559,-2.25353 z m 138.7296,-3.08309 c 26.0833,-15.24574 39.2516,-28.64869 54.6709,-55.64491 6.1926,-10.84205 6.9462,-14.02875 4.0695,-17.20744 -2.574,-2.84426 -4.8781,-2.46988 -13.3847,2.17477 -29.8764,16.31273 -46.0134,32.32669 -62.4303,61.95447 -4.1933,7.56767 -4.5268,10.59093 -1.524,13.81414 2.9587,3.17574 5.7736,2.4052 18.5986,-5.09103 z m 129.7186,2.03817 c 28.5914,-16.24364 40.2156,-27.41947 55.8893,-53.73382 9.0824,-15.24829 9.7501,-17.33701 6.6105,-20.67892 -1.2631,-1.34455 -3.2329,-2.44464 -4.3772,-2.44464 -2.2264,0 -18.4528,9.11243 -29.9377,16.81241 -8.8228,5.91518 -21.7686,18.61327 -28.1432,27.6047 -7.0215,9.90394 -17.4899,28.58196 -17.4899,31.20602 0,2.39599 4.2656,6.37687 6.833,6.37687 0.8598,0 5.6366,-2.31418 10.6152,-5.14262 z m 131.5518,1.04492 c 29.1632,-15.82419 45.9049,-32.58788 61.9591,-62.04047 4.562,-8.36942 4.9239,-10.97886 1.9368,-13.966 -3.0219,-3.02189 -6.2902,-2.04689 -19.3192,5.76346 -26.4888,15.8788 -38.4601,27.99827 -54.1056,54.77478 -6.4276,11.00064 -7.177,14.76613 -3.527,17.72176 3.1973,2.58895 4.5673,2.35247 13.0559,-2.25353 z m 138.72959,-3.08309 c 26.08328,-15.24574 39.25162,-28.64869 54.67087,-55.64491 6.19258,-10.84205 6.94623,-14.02875 4.06956,-17.20744 -2.57402,-2.84426 -4.87811,-2.46988 -13.3847,2.17477 -29.87644,16.31273 -46.0134,32.32669 -62.43032,61.95447 -4.1933,7.56767 -4.5269,10.59093 -1.524,13.81414 2.9587,3.17574 5.7736,2.4052 18.59859,-5.09103 z m -541.25959,-61.78607 c 2.9378,-3.24615 2.1005,-6.39403 -4.9133,-18.47227 -15.4716,-26.64339 -26.9623,-38.30917 -53.0567,-53.86501 -13.5578,-8.08236 -15.7641,-8.73581 -19.0553,-5.64385 -3.3378,3.13567 -3.0776,6.11352 1.2103,13.85189 11.9337,21.53689 24.766,37.03771 39.3609,47.54608 10.5309,7.58234 29.7612,18.55002 32.5248,18.55002 1.1822,0 2.9503,-0.88509 3.9293,-1.96686 z m 133.53,-0.0331 c 1.1,-1.1 2,-3.04418 2,-4.32041 0,-1.27622 -3.4875,-8.14126 -7.75,-15.25565 -16.2602,-27.1393 -25.8585,-36.74862 -52.9793,-53.03985 -12.573,-7.55251 -14.417,-8.17349 -17.7621,-5.98168 -4.2834,2.80658 -4.172,5.71747 0.5481,14.32506 16.7391,30.5259 28.7572,42.76056 59.4273,60.49837 10.802,6.24725 13.4401,6.85009 16.516,3.77416 z m 133.1713,0.34501 c 2.7812,-2.51698 2.2281,-5.94131 -2.3034,-14.2597 -16.0747,-29.50807 -32.6899,-46.15537 -61.8679,-61.98761 -8.4886,-4.606 -9.8586,-4.84248 -13.0559,-2.25353 -3.8488,3.11663 -2.962,6.76988 4.8033,19.78664 15.8271,26.53047 26.8266,37.43619 53.7526,53.29424 12.4273,7.31903 15.5661,8.23016 18.6713,5.41996 z m 133.2987,-0.31187 c 2.9378,-3.24615 2.1005,-6.39403 -4.9133,-18.47227 -15.4716,-26.64339 -26.9623,-38.30917 -53.0567,-53.86501 -13.5578,-8.08236 -15.7641,-8.73581 -19.0553,-5.64385 -3.3378,3.13567 -3.0776,6.11352 1.2103,13.85189 11.9337,21.53689 24.766,37.03771 39.3609,47.54608 10.5309,7.58234 29.7612,18.55002 32.5248,18.55002 1.1822,0 2.9503,-0.88509 3.9293,-1.96686 z m 133.53,-0.0331 c 1.1,-1.1 2,-3.04418 2,-4.32041 0,-1.27622 -3.4875,-8.14126 -7.75,-15.25565 -16.2602,-27.1393 -25.8585,-36.74862 -52.9793,-53.03985 -12.573,-7.55251 -14.417,-8.17349 -17.7621,-5.98168 -4.2834,2.80658 -4.172,5.71747 0.5481,14.32506 16.7391,30.5259 28.7572,42.76056 59.4273,60.49837 10.802,6.24725 13.4401,6.85009 16.516,3.77416 z m 133.17127,0.34501 c 2.78123,-2.51698 2.22809,-5.94131 -2.30341,-14.2597 -16.07471,-29.50807 -32.68984,-46.15537 -61.86785,-61.98761 -8.48862,-4.606 -9.85867,-4.84248 -13.05588,-2.25353 -3.84888,3.11663 -2.96205,6.76988 4.80325,19.78664 15.82706,26.53047 26.82657,37.43619 53.75263,53.29424 12.42729,7.31903 15.56603,8.23016 18.67126,5.41996 z m -659.04417,-71.66223 c 26.6943,-15.74196 38.2403,-27.28517 53.5743,-53.56097 7.5297,-12.9026 8.4817,-16.15706 5.6436,-19.29307 -2.6546,-2.93332 -6.3391,-2.16674 -15.8869,3.3053 -21.3454,12.23347 -35.932,24.15331 -45.1138,36.86596 -5.4937,7.60615 -15.293,23.64262 -17.5217,28.67401 -2.1148,4.77419 -1.1998,8.40294 2.5415,10.0791 3.0077,1.34749 6.0565,0.24344 16.763,-6.07033 z m 137.0034,-2.26137 c 13.2849,-8.00433 23.5746,-16.04188 30.7182,-23.99478 6.3003,-7.014 18.4368,-25.0141 23.6429,-35.06562 3.2572,-6.28869 3.5494,-7.42021 2.4533,-9.5 -2.9958,-5.6844 -6.372,-5.17972 -20.1641,3.01413 -16.7581,9.95593 -23.3573,14.94142 -32.8673,24.83014 -8.8007,9.15129 -14.1499,16.60101 -22.7996,31.75276 -5.4094,9.47568 -6.2192,13.26905 -3.3639,15.75648 4.13,3.59781 6.1542,2.98341 22.3805,-6.79311 z m 127.728,3.31663 c 28.3563,-16.31501 43.1255,-31.51107 59.0317,-60.73804 4.6769,-8.59366 4.92,-10.18981 1.9973,-13.11257 -3.0039,-3.00383 -6.7593,-2.10369 -17.4484,4.18222 -28.1198,16.53628 -39.0387,27.20178 -54.7058,53.43629 -3.615,6.05327 -6.8721,12.19886 -7.238,13.65686 -1.213,4.83292 3.1103,9.27611 7.8259,8.04295 1.0427,-0.27267 5.7845,-2.73314 10.5373,-5.46771 z m 135.2686,-1.05526 c 26.6943,-15.74196 38.2403,-27.28517 53.5743,-53.56097 7.5297,-12.9026 8.4817,-16.15706 5.6436,-19.29307 -2.6546,-2.93332 -6.3391,-2.16674 -15.8869,3.3053 -21.3454,12.23347 -35.932,24.15331 -45.1138,36.86596 -5.4937,7.60615 -15.293,23.64262 -17.5217,28.67401 -2.1148,4.77419 -1.1998,8.40294 2.5415,10.0791 3.0077,1.34749 6.0565,0.24344 16.763,-6.07033 z m 137.00334,-2.26137 c 23.98974,-14.45411 35.6306,-26.57316 50.95265,-53.04572 6.63322,-11.46051 7.19282,-12.98301 5.76736,-15.69116 -2.8891,-5.48884 -6.39953,-4.93076 -20.06967,3.19061 -16.78205,9.97016 -23.36882,14.95018 -32.84509,24.83302 -8.80979,9.18775 -14.22309,16.72117 -22.81459,31.74988 -5.4159,9.47379 -6.2277,13.26798 -3.3711,15.75648 4.13,3.59781 6.1542,2.98341 22.38044,-6.79311 z m -546.01684,-58.48221 c 1.0902,-0.58344 2.4081,-2.18122 2.9288,-3.55063 1.1001,-2.89344 -0.019,-5.39736 -9.3361,-20.88857 -7.7682,-12.91613 -13.543,-20.48047 -21.6562,-28.3673 -10.3159,-10.02808 -38.5581,-28.1327 -43.8854,-28.1327 -3.0168,0 -6.1647,3.46333 -6.1647,6.78252 0,2.92989 11.7186,23.15472 19.2126,33.15876 10.8099,14.43033 26.3955,26.76379 49.1782,38.91648 6.5683,3.50367 6.9234,3.57967 9.7228,2.08144 z m 134.572,-1.11351 c 1.2729,-1.19588 2.3144,-3.13429 2.3144,-4.30758 0,-2.90862 -13.1208,-25.17328 -20.7019,-35.12915 -3.397,-4.46107 -9.0163,-10.69526 -12.4872,-13.85375 -10.9267,-9.94303 -37.5061,-26.5282 -42.5219,-26.53307 -2.635,-0.003 -6.289,3.62068 -6.289,6.23608 0,2.29188 1.6175,5.47564 9.2776,18.26178 14.2237,23.74222 27.603,36.34991 55.2224,52.03769 11.3263,6.43333 11.7418,6.52328 15.1856,3.288 z m 134.1358,-0.67667 c 2.8038,-3.49914 0.3042,-9.17707 -13.4925,-30.64902 -10.8586,-16.8993 -28.0556,-31.89591 -51.425,-44.84505 -7.4502,-4.12823 -9.7065,-4.44511 -12.9499,-1.81874 -3.4798,2.81771 -2.7407,6.7657 3.138,16.7626 17.8596,30.37059 31.6076,43.52478 62.7651,60.05417 6.6822,3.54497 9.4299,3.65889 11.9643,0.49604 z m 131.2922,1.79018 c 1.0902,-0.58344 2.4081,-2.18122 2.9288,-3.55063 1.1001,-2.89344 -0.019,-5.39736 -9.3361,-20.88857 -7.7682,-12.91613 -13.543,-20.48047 -21.6562,-28.3673 -10.3159,-10.02808 -38.5581,-28.1327 -43.8854,-28.1327 -3.0168,0 -6.1647,3.46333 -6.1647,6.78252 0,2.92989 11.7186,23.15472 19.2126,33.15876 10.8099,14.43033 26.3955,26.76379 49.1782,38.91648 6.5683,3.50367 6.9234,3.57967 9.7228,2.08144 z m 134.572,-1.11351 c 1.2729,-1.19588 2.3144,-3.13429 2.3144,-4.30758 0,-2.90862 -13.1208,-25.17328 -20.7019,-35.12915 -3.397,-4.46107 -9.0163,-10.69526 -12.4872,-13.85375 -10.9267,-9.94303 -37.5061,-26.5282 -42.5219,-26.53307 -2.635,-0.003 -6.289,3.62068 -6.289,6.23608 0,2.29188 1.6175,5.47564 9.2776,18.26178 14.2237,23.74222 27.603,36.34991 55.2224,52.03769 11.3263,6.43333 11.7418,6.52328 15.1856,3.288 z m 134.13576,-0.67667 c 2.80383,-3.49914 0.30426,-9.17707 -13.49247,-30.64902 -10.85858,-16.8993 -28.05558,-31.89591 -51.42498,-44.84505 -7.45023,-4.12823 -9.70653,-4.44511 -12.94995,-1.81874 -3.47974,2.81771 -2.74065,6.7657 3.13807,16.7626 17.85956,30.37059 31.60752,43.52478 62.76503,60.05417 6.68219,3.54497 9.42994,3.65889 11.9643,0.49604 z m -662.27936,-69.26821 c 27.7884,-15.87983 41.2806,-29.28117 57.3297,-56.94384 6.2553,-10.78182 7.1718,-14.12769 4.7699,-17.41259 -2.4584,-3.362 -6.7352,-2.25011 -19.2109,4.99445 -26.778,15.54975 -40.0725,28.96732 -54.8483,55.3557 -6.8657,12.26168 -7.117,13.17596 -4.5273,16.46826 3.0407,3.86566 6.2536,3.38589 16.4869,-2.46198 z m 131.2146,1.13527 c 29.5369,-16.10124 45.4659,-32.16028 61.6372,-62.14076 3.9963,-7.4089 4.5104,-8.99719 3.6471,-11.26793 -1.1164,-2.9364 -5.076,-4.91177 -7.7822,-3.88245 -0.9673,0.36791 -6.0337,3.1249 -11.2587,6.12665 -27.2596,15.66059 -38.4386,26.54332 -54.273,52.8348 -7.9303,13.16752 -8.872,16.23374 -6.1703,20.09102 2.2597,3.22613 5.8728,2.77797 14.1999,-1.76133 z m 134.6452,-0.6812 c 28.0766,-16.17368 39.5229,-27.00585 54.7749,-51.83652 10.8077,-17.59505 11.5964,-20.63534 6.2603,-24.13167 -2.444,-1.60139 -2.79,-1.52717 -10.044,2.15479 -14.9472,7.5868 -28.4671,17.25551 -38.9186,27.83245 -5.5142,5.5803 -11.7009,12.69609 -13.7483,15.81289 -7.2166,10.98565 -15.7261,26.34748 -15.7261,28.38961 0,2.95158 3.6259,6.44349 6.6907,6.44349 1.437,0 6.257,-2.09927 10.7111,-4.66504 z m 134.1402,-0.45407 c 27.7884,-15.87983 41.2806,-29.28117 57.3297,-56.94384 6.2553,-10.78182 7.1718,-14.12769 4.7699,-17.41259 -2.4584,-3.362 -6.7352,-2.25011 -19.2109,4.99445 -26.778,15.54975 -40.0725,28.96732 -54.8483,55.3557 -6.8657,12.26168 -7.117,13.17596 -4.5273,16.46826 3.0407,3.86566 6.2536,3.38589 16.4869,-2.46198 z m 131.2146,1.13527 c 29.53693,-16.10124 45.46585,-32.16028 61.63719,-62.14076 3.99633,-7.4089 4.51041,-8.99719 3.64708,-11.26793 -1.11642,-2.9364 -5.07595,-4.91177 -7.78218,-3.88245 -0.96727,0.36791 -6.03368,3.1249 -11.25868,6.12665 -27.25962,15.66059 -38.43859,26.54332 -54.27301,52.8348 -7.9303,13.16752 -8.872,16.23374 -6.1703,20.09102 2.2597,3.22613 5.8727,2.77797 14.1999,-1.76133 z m -537.1563,-63.78147 c 0.6052,-0.40408 1.6177,-1.71773 2.2502,-2.91922 1.4674,-2.78783 0.5908,-5.13248 -6.0772,-16.25477 -16.9739,-28.31301 -26.1147,-37.58076 -53.1546,-53.89307 -12.8215,-7.73481 -16.8532,-8.77596 -20.0982,-5.19025 -2.8264,3.12309 -1.4193,7.59217 6.4879,20.606 15.7072,25.85142 26.6157,36.41265 54.1163,52.39327 9.7463,5.66355 13.8885,6.9855 16.4756,5.25804 z m 134.9869,-1.7274 c 2.1921,-3.34553 1.5229,-5.4641 -5.4645,-17.29944 -9.7241,-16.471 -14.0188,-22.27252 -23.5383,-31.79667 -9.4356,-9.44024 -17.7355,-15.51893 -33.1362,-24.26856 -9.8808,-5.61355 -13.3419,-6.24889 -16.5523,-3.03845 -2.8784,2.87837 -2.0983,5.99109 4.1547,16.57769 14.3477,24.29117 25.3766,36.47321 43.9494,48.54491 21.5251,13.99053 27.3935,16.15478 30.5872,11.28052 z m 132.5841,0.83772 c 2.9967,-2.71201 2.1431,-6.33294 -3.9997,-16.96531 -11.6834,-20.22249 -22.6249,-33.61714 -35.2414,-43.14264 -3.0512,-2.30368 -11.1316,-7.57444 -17.9564,-11.71279 -14.8259,-8.98998 -18.7563,-9.66627 -21.8656,-3.76239 -1.4966,2.84167 0.1627,6.83577 8.4076,20.23812 14.3085,23.25881 24.9678,33.93356 47.3506,47.4195 17.6572,10.63868 19.5831,11.29365 23.3049,7.92551 z m 132.429,0.88968 c 0.6052,-0.40408 1.6177,-1.71773 2.2502,-2.91922 1.4674,-2.78783 0.5908,-5.13248 -6.0772,-16.25477 -16.9739,-28.31301 -26.1147,-37.58076 -53.1546,-53.89307 -12.8215,-7.73481 -16.8532,-8.77596 -20.0982,-5.19025 -2.8264,3.12309 -1.4193,7.59217 6.4879,20.606 15.7072,25.85142 26.6157,36.41265 54.1163,52.39327 9.7463,5.66355 13.8885,6.9855 16.4756,5.25804 z m 134.9869,-1.7274 c 2.1921,-3.34553 1.5229,-5.4641 -5.4645,-17.29944 -9.7241,-16.471 -14.0188,-22.27252 -23.5383,-31.79667 -9.4356,-9.44024 -17.7355,-15.51893 -33.1362,-24.26856 -9.8808,-5.61355 -13.3419,-6.24889 -16.5523,-3.03845 -2.8784,2.87837 -2.0983,5.99109 4.1547,16.57769 14.3477,24.29117 25.3766,36.47321 43.9494,48.54491 21.5251,13.99053 27.3935,16.15478 30.5872,11.28052 z m 132.58407,0.83772 c 2.99674,-2.71201 2.14308,-6.33294 -3.9997,-16.96531 -11.68341,-20.22249 -22.62492,-33.61714 -35.24135,-43.14264 -3.05121,-2.30368 -11.13159,-7.57444 -17.95641,-11.71279 -14.82596,-8.98998 -18.75629,-9.66627 -21.86564,-3.76239 -1.4966,2.84167 0.16269,6.83577 8.40764,20.23812 14.30849,23.25881 24.96774,33.93356 47.3506,47.4195 17.65721,10.63868 19.58311,11.29365 23.30486,7.92551 z m -664.17127,-68.44271 c 29.1632,-15.82419 45.9049,-32.58788 61.9591,-62.04047 4.562,-8.36942 4.9239,-10.97886 1.9368,-13.966 -3.0219,-3.02189 -6.2902,-2.04689 -19.3192,5.76346 -26.4888,15.8788 -38.4601,27.99827 -54.1056,54.77478 -6.4276,11.00064 -7.177,14.76613 -3.527,17.72176 3.1973,2.58895 4.5673,2.35247 13.0559,-2.25353 z m 138.7296,-3.08309 c 26.0833,-15.24574 39.2516,-28.64869 54.6709,-55.64491 6.1926,-10.84205 6.9462,-14.02875 4.0695,-17.20744 -2.574,-2.84426 -4.8781,-2.46988 -13.3847,2.17477 -29.8764,16.31273 -46.0134,32.32669 -62.4303,61.95447 -4.1933,7.56767 -4.5268,10.59093 -1.524,13.81414 2.9587,3.17574 5.7736,2.4052 18.5986,-5.09103 z m 129.7186,2.03817 c 28.5914,-16.24364 40.2156,-27.41947 55.8893,-53.73382 9.0824,-15.24829 9.7501,-17.33701 6.6105,-20.67892 -1.2631,-1.34455 -3.2329,-2.44464 -4.3772,-2.44464 -2.2264,0 -18.4528,9.11243 -29.9377,16.81241 -8.8228,5.91518 -21.7686,18.61327 -28.1432,27.6047 -7.0215,9.90394 -17.4899,28.58196 -17.4899,31.20602 0,2.39599 4.2656,6.37687 6.833,6.37687 0.8598,0 5.6366,-2.31418 10.6152,-5.14262 z m 131.5518,1.04492 c 29.1632,-15.82419 45.9049,-32.58788 61.9591,-62.04047 4.562,-8.36942 4.9239,-10.97886 1.9368,-13.966 -3.0219,-3.02189 -6.2902,-2.04689 -19.3192,5.76346 -26.4888,15.8788 -38.4601,27.99827 -54.1056,54.77478 -6.4276,11.00064 -7.177,14.76613 -3.527,17.72176 3.1973,2.58895 4.5673,2.35247 13.0559,-2.25353 z m 138.72959,-3.08309 c 26.08328,-15.24574 39.25162,-28.64869 54.67087,-55.64491 6.19258,-10.84205 6.94623,-14.02875 4.06956,-17.20744 -2.57402,-2.84426 -4.87811,-2.46988 -13.3847,2.17477 -29.87644,16.31273 -46.0134,32.32669 -62.43032,61.95447 -4.1933,7.56767 -4.5269,10.59093 -1.524,13.81414 2.9587,3.17574 5.7736,2.4052 18.59859,-5.09103 z"
         id="path3060"
         inkscape:connector-curvature="0"
         clip-path="url(#clipPath8718)" />
    </g>
  </g>
</svg>
